# xmcd CD database file
# Copyright (C) 1993-1998 Ti Kan
# 
# Track frame offsets:
#     150
#     11427
#     27795
#     37910
#     53020
#     62605
#     73677
#     84120
#     100447
#     112892
#     124292
#     132710
#     140840
#     152820
# 
# Disc length: 2169 seconds
# 
# Revision: 1
# Processed by: cddbd v1.4b41PL1 Copyright (c) Steve Scherf et al.
# Submitted via: DiscPlay 4.0.4
# 
DISCID=ba08770e
DTITLE=Various Artist - Country Music 5
DYEAR=1900
DGENRE=
TTITLE0=Red River Valley (Gleen Yarbrouga)
TTITLE1=Nobody (Merle Travis)
TTITLE2=Boll Weevil (Tex Ritter)
TTITLE3=One Day At A Time (George Hamilton IV)
TTITLE4=Truck Drivin s On Of A Gun (Ferlin Husky)
TTITLE5=Oklahoma Hills (Jim Wakely)
TTITLE6=Storm Of Love (Porter Wagoner)
TTITLE7=I m On My Way (The Wilsons)
TTITLE8=Roll The Dice (Alan Borders)
TTITLE9=Tie Me Up (David Speegle)
TTITLE10=Night After Night (Mickey Gilley)
TTITLE11=After Dark (Kitty Wells)
TTITLE12=Roly Poly (Bob Wills)
TTITLE13=Lorena (Waylon Jennings)
EXTD=
EXTT0=
EXTT1=
EXTT2=
EXTT3=
EXTT4=
EXTT5=
EXTT6=
EXTT7=
EXTT8=
EXTT9=
EXTT10=
EXTT11=
EXTT12=
EXTT13=
PLAYORDER=
